<mxfile host="app.diagrams.net" modified="2021-03-07T17:41:21.444Z" agent="5.0 (Windows NT 10.0; Win64; x64) AppleWebKit/537.36 (KHTML, like Gecko) Chrome/88.0.4324.190 Safari/537.36" etag="4o-GWg5zzopFe90Dat40" version="14.4.4" type="github">
  <diagram id="111c6Wfp-WboAExrvNZx" name="Page-1">
    <mxGraphModel dx="1422" dy="794" grid="1" gridSize="10" guides="1" tooltips="1" connect="1" arrows="1" fold="1" page="1" pageScale="1" pageWidth="850" pageHeight="1100" math="0" shadow="0">
      <root>
        <mxCell id="0" />
        <mxCell id="1" parent="0" />
        <mxCell id="Dhbi9yPyJFvyUZXDHWc6-1" value="User" style="swimlane;fontStyle=1;align=center;verticalAlign=top;childLayout=stackLayout;horizontal=1;startSize=26;horizontalStack=0;resizeParent=1;resizeParentMax=0;resizeLast=0;collapsible=1;marginBottom=0;" parent="1" vertex="1">
          <mxGeometry x="160" y="339" width="210" height="190" as="geometry" />
        </mxCell>
        <mxCell id="Dhbi9yPyJFvyUZXDHWc6-2" value="-selectedCharaceter = character(2)" style="text;strokeColor=none;fillColor=none;align=left;verticalAlign=top;spacingLeft=4;spacingRight=4;overflow=hidden;rotatable=0;points=[[0,0.5],[1,0.5]];portConstraint=eastwest;" parent="Dhbi9yPyJFvyUZXDHWc6-1" vertex="1">
          <mxGeometry y="26" width="210" height="26" as="geometry" />
        </mxCell>
        <mxCell id="Dhbi9yPyJFvyUZXDHWc6-3" value="" style="line;strokeWidth=1;fillColor=none;align=left;verticalAlign=middle;spacingTop=-1;spacingLeft=3;spacingRight=3;rotatable=0;labelPosition=right;points=[];portConstraint=eastwest;" parent="Dhbi9yPyJFvyUZXDHWc6-1" vertex="1">
          <mxGeometry y="52" width="210" height="8" as="geometry" />
        </mxCell>
        <mxCell id="Dhbi9yPyJFvyUZXDHWc6-4" value="-selectCharacter (character) : void&#xa;-confirmCharacter (character): void&#xa;-cancelCharacter (character): void&#xa;-viewFrameData: void&#xa;-compareFrameData: void&#xa;&#xa;&#xa;" style="text;strokeColor=none;fillColor=none;align=left;verticalAlign=top;spacingLeft=4;spacingRight=4;overflow=hidden;rotatable=0;points=[[0,0.5],[1,0.5]];portConstraint=eastwest;" parent="Dhbi9yPyJFvyUZXDHWc6-1" vertex="1">
          <mxGeometry y="60" width="210" height="130" as="geometry" />
        </mxCell>
        <mxCell id="Dhbi9yPyJFvyUZXDHWc6-5" value="Character" style="swimlane;fontStyle=1;align=center;verticalAlign=top;childLayout=stackLayout;horizontal=1;startSize=26;horizontalStack=0;resizeParent=1;resizeParentMax=0;resizeLast=0;collapsible=1;marginBottom=0;" parent="1" vertex="1">
          <mxGeometry x="480" y="339" width="290" height="280" as="geometry" />
        </mxCell>
        <mxCell id="Dhbi9yPyJFvyUZXDHWc6-6" value="-Name = String&#xa;-ID = Integer&#xa;-MoveList = String[n]&#xa;&#xa;" style="text;strokeColor=none;fillColor=none;align=left;verticalAlign=top;spacingLeft=4;spacingRight=4;overflow=hidden;rotatable=0;points=[[0,0.5],[1,0.5]];portConstraint=eastwest;" parent="Dhbi9yPyJFvyUZXDHWc6-5" vertex="1">
          <mxGeometry y="26" width="290" height="74" as="geometry" />
        </mxCell>
        <mxCell id="Dhbi9yPyJFvyUZXDHWc6-8" value="-getMoveStatsÂ  (character): list&#xa;-setMoveStates (character): list&#xa; -compareFrameData (move, opponent) = Integer&#xa;&#xa; &#xa;" style="text;strokeColor=none;fillColor=none;align=left;verticalAlign=top;spacingLeft=4;spacingRight=4;overflow=hidden;rotatable=0;points=[[0,0.5],[1,0.5]];portConstraint=eastwest;" parent="Dhbi9yPyJFvyUZXDHWc6-5" vertex="1">
          <mxGeometry y="100" width="290" height="92" as="geometry" />
        </mxCell>
        <mxCell id="Dhbi9yPyJFvyUZXDHWc6-7" value="" style="line;strokeWidth=1;fillColor=none;align=left;verticalAlign=middle;spacingTop=-1;spacingLeft=3;spacingRight=3;rotatable=0;labelPosition=right;points=[];portConstraint=eastwest;" parent="Dhbi9yPyJFvyUZXDHWc6-5" vertex="1">
          <mxGeometry y="192" width="290" height="88" as="geometry" />
        </mxCell>
        <mxCell id="wB1dkM1bmyT0xTEuBhJ4-1" value="Tkinter" style="swimlane;fontStyle=1;align=center;verticalAlign=top;childLayout=stackLayout;horizontal=1;startSize=26;horizontalStack=0;resizeParent=1;resizeParentMax=0;resizeLast=0;collapsible=1;marginBottom=0;" parent="1" vertex="1">
          <mxGeometry x="315" y="170" width="220" height="90" as="geometry" />
        </mxCell>
        <mxCell id="wB1dkM1bmyT0xTEuBhJ4-3" value="" style="line;strokeWidth=1;fillColor=none;align=left;verticalAlign=middle;spacingTop=-1;spacingLeft=3;spacingRight=3;rotatable=0;labelPosition=right;points=[];portConstraint=eastwest;" parent="wB1dkM1bmyT0xTEuBhJ4-1" vertex="1">
          <mxGeometry y="26" width="220" height="8" as="geometry" />
        </mxCell>
        <mxCell id="wB1dkM1bmyT0xTEuBhJ4-4" value="+Tk() : Constructor&#xa;+Label (location,aux_args) : Label&#xa;+Entry(location, aux_args) : Entry&#xa;&#xa;" style="text;strokeColor=none;fillColor=none;align=left;verticalAlign=top;spacingLeft=4;spacingRight=4;overflow=hidden;rotatable=0;points=[[0,0.5],[1,0.5]];portConstraint=eastwest;" parent="wB1dkM1bmyT0xTEuBhJ4-1" vertex="1">
          <mxGeometry y="34" width="220" height="56" as="geometry" />
        </mxCell>
        <mxCell id="wB1dkM1bmyT0xTEuBhJ4-9" value="Interacts" style="endArrow=open;endSize=12;dashed=1;html=1;exitX=0.477;exitY=1.089;exitDx=0;exitDy=0;exitPerimeter=0;entryX=0.393;entryY=0;entryDx=0;entryDy=0;entryPerimeter=0;" parent="1" source="wB1dkM1bmyT0xTEuBhJ4-4" target="Dhbi9yPyJFvyUZXDHWc6-5" edge="1">
          <mxGeometry width="160" relative="1" as="geometry">
            <mxPoint x="370" y="410" as="sourcePoint" />
            <mxPoint x="530" y="410" as="targetPoint" />
          </mxGeometry>
        </mxCell>
        <mxCell id="wB1dkM1bmyT0xTEuBhJ4-13" value="" style="endArrow=none;html=1;exitX=0.452;exitY=0.011;exitDx=0;exitDy=0;exitPerimeter=0;entryX=0.455;entryY=1.071;entryDx=0;entryDy=0;entryPerimeter=0;" parent="1" source="Dhbi9yPyJFvyUZXDHWc6-1" target="wB1dkM1bmyT0xTEuBhJ4-4" edge="1">
          <mxGeometry width="50" height="50" relative="1" as="geometry">
            <mxPoint x="410" y="500" as="sourcePoint" />
            <mxPoint x="460" y="450" as="targetPoint" />
          </mxGeometry>
        </mxCell>
        <mxCell id="cpFeMSVZ8XPZoCry0M5q-1" value="" style="endArrow=none;html=1;entryX=0;entryY=0.5;entryDx=0;entryDy=0;" edge="1" parent="1" target="cpFeMSVZ8XPZoCry0M5q-2">
          <mxGeometry width="50" height="50" relative="1" as="geometry">
            <mxPoint x="370" y="425" as="sourcePoint" />
            <mxPoint x="450" y="380" as="targetPoint" />
          </mxGeometry>
        </mxCell>
        <mxCell id="cpFeMSVZ8XPZoCry0M5q-2" value="" style="rhombus;whiteSpace=wrap;html=1;" vertex="1" parent="1">
          <mxGeometry x="460" y="410" width="20" height="30" as="geometry" />
        </mxCell>
        <mxCell id="cpFeMSVZ8XPZoCry0M5q-3" value="0 .. 2" style="text;html=1;strokeColor=none;fillColor=none;align=center;verticalAlign=middle;whiteSpace=wrap;rounded=0;" vertex="1" parent="1">
          <mxGeometry x="380" y="400" width="40" height="20" as="geometry" />
        </mxCell>
      </root>
    </mxGraphModel>
  </diagram>
</mxfile>
